<?xml version="1.0" encoding="utf-8"?>
<!-- Generator: Adobe Illustrator 16.0.0, SVG Export Plug-In . SVG Version: 6.00 Build 0)  -->
<!DOCTYPE svg PUBLIC "-//W3C//DTD SVG 1.1//EN" "http://www.w3.org/Graphics/SVG/1.1/DTD/svg11.dtd">
<svg version="1.1" id="Layer_1" xmlns="http://www.w3.org/2000/svg" xmlns:xlink="http://www.w3.org/1999/xlink" x="0px" y="0px"
	 width="500px" height="500px" viewBox="0 0 500 500" enable-background="new 0 0 500 500" xml:space="preserve">
<g>
	<g>
		<path fill-rule="evenodd" clip-rule="evenodd" fill="#CEC153" d="M338.268,122.223c4.073,3.192,8.077,6.132,11.863,9.331
			c21.848,18.464,38.523,40.624,48.121,67.792c4.206,11.905,6.907,24.125,7.742,36.746c2.757,41.71-9.033,78.802-35.768,110.915
			c-23.961,28.783-54.599,46.939-91.426,53.294c-48.319,8.337-91.878-3.176-129.305-35.222
			c-28.324-24.255-45.523-55.128-51.965-91.914c-1.801-10.287-2.631-20.669-2.125-31.09c2.179-44.992,19.906-82.609,53.789-112.453
			c2.953-2.6,6.101-4.985,9.227-7.381c2.338-1.792,3.384-1.747,5.778,0.065c3.217,2.434,6.352,4.977,9.601,7.367
			c1.478,1.087,1.819,2.066,0.782,3.719c-1.843,2.938-3.56,5.963-5.169,9.036c-0.997,1.904-2.357,2.583-4.492,2.623
			c-7.529,0.144-14.677,1.765-21.089,5.974c-12.181,7.993-18.67,22.596-16.388,36.131c2.609,15.472,13.565,26.628,28.343,30.048
			c20.156,4.665,39.84-8.606,43.736-29.227c1.667-8.827-0.095-17.007-4.715-24.543c-1.556-2.54-1.597-4.48,0.026-6.924
			c2.072-3.118,3.773-6.482,5.663-9.723c1.312-2.25,1.665-2.44,4.045-1.63c9.625,3.273,19.49,5.496,29.582,6.6
			c10.464,1.145,20.954,1.141,31.459,0.313c11.272-0.889,22.273-3.016,32.988-6.636c13.763-4.648,26.191-11.639,37.194-21.139
			C336.469,123.686,337.198,123.106,338.268,122.223z M313.436,272.033c-4.65-1.82-7.884-1.006-10.485,2.45
			c-5.371,7.134-15.035,10.58-23.56,8.3c-5.271-1.411-9.498-4.614-12.834-8.738c-4.535-5.604-8.789-11.453-12.914-17.371
			c-4.246-6.087-8.4-12.223-13.811-17.364c-5.91-5.615-12.76-9.221-21.098-9.318c-19.771-0.23-34.539,17.571-30.75,37.013
			c3.333,17.102,21.723,28.337,38.396,23.379c8.588-2.554,14.63-8.531,19.938-15.376c0.413-0.532,0.579-1.722,0.267-2.27
			c-1.091-1.922-2.443-3.694-3.904-5.825c-0.913,1.032-1.512,1.714-2.116,2.392c-2.182,2.446-4.225,5.041-6.581,7.31
			c-4.085,3.936-8.85,6.617-14.708,6.845c-13.635,0.527-24.521-10.858-23.797-24.226c0.865-15.983,19.333-26.478,33.076-18.316
			c3.548,2.107,6.823,5.086,9.41,8.314c4.979,6.208,9.387,12.875,14.012,19.365c4.033,5.662,8.207,11.182,13.549,15.735
			c15.956,13.603,38.596,6.577,46.758-9.557C312.729,273.894,313.052,272.951,313.436,272.033z M307.013,256.437
			c-1.349,0.073-2.354,0.169-3.357,0.171c-6.851,0.016-13.7,0.003-20.549,0.011c-4.576,0.003-4.576,0.01-4.526,4.7
			c0.033,3.282,0.033,3.312,3.278,3.316c10.132,0.014,20.265,0.012,30.398-0.005c0.996-0.001,1.989-0.148,3.282-0.252
			c0-2.32,0.117-4.362-0.02-6.389c-1.22-18.147-19.967-31.652-37.646-27.141c-9.246,2.36-15.624,8.596-21.207,15.854
			c-0.375,0.488-0.596,1.552-0.321,2.006c1.185,1.961,2.579,3.795,4.097,5.959c0.971-1.152,1.584-1.961,2.279-2.694
			c2.834-2.985,5.457-6.224,8.58-8.869c12.339-10.451,30.344-3.571,35.104,10.405C306.694,254.353,306.775,255.263,307.013,256.437z
			 M221.745,332.963c-0.246,0.095-0.492,0.192-0.738,0.289c-0.655-0.765-1.349-1.501-1.96-2.299
			c-4.795-6.251-9.574-12.514-14.36-18.771c-4.965-6.49-3.803-5.623-11.634-5.655c-3.911-0.016-4.99,0.99-5.391,4.863
			c-0.107,1.023-0.096,2.06-0.098,3.091c-0.009,5.628-0.008,11.257-0.004,16.886c0.002,2.438,0.023,4.877,0.032,7.316
			c0.006,1.694,0.711,2.675,2.547,2.535c0.373-0.029,0.75,0.002,1.125,0.004c4.271,0.028,4.282,0.028,4.288-4.133
			c0.009-6.566-0.006-13.132,0.013-19.7c0.002-0.939,0.14-1.879,0.215-2.816c0.221-0.044,0.443-0.088,0.665-0.132
			c0.857,1.083,1.729,2.156,2.57,3.251c4.625,6.027,9.233,12.066,13.865,18.087c4.814,6.26,4.077,5.405,11.216,5.436
			c4.131,0.016,5.292-1.113,5.601-5.271c0.056-0.748,0.042-1.501,0.042-2.252c0.004-7.504,0.009-15.01,0-22.514
			c-0.007-4.683-0.063-4.729-4.683-4.66c-3.104,0.045-3.288,0.203-3.299,3.432c-0.024,6.66-0.009,13.32-0.01,19.98
			C221.745,330.941,221.745,331.951,221.745,332.963z M299.117,341.217c3.939,0,7.881,0.036,11.819-0.03
			c0.777-0.014,2.152-0.314,2.22-0.679c0.324-1.697,0.562-3.506,0.297-5.191c-0.25-1.582-1.911-1.186-3.071-1.191
			c-6.38-0.032-12.757,0.001-19.135-0.034c-1.112-0.006-2.252-0.101-3.328-0.368c-2.479-0.621-3.322-1.567-3.399-4.122
			c-0.109-3.652-0.112-7.316,0.002-10.969c0.079-2.509,0.951-3.455,3.466-4.068c1.076-0.263,2.216-0.347,3.33-0.353
			c6.003-0.033,12.007-0.012,18.01-0.017c4.33-0.003,4.615-0.304,4.44-4.617c-0.009-0.188-0.019-0.375-0.018-0.562
			c0.005-1.744-0.82-2.546-2.603-2.505c-2.626,0.06-5.253,0.003-7.88,0.006c-5.158,0.003-10.321-0.107-15.477,0.05
			c-6.815,0.208-10.842,3.56-11.277,9.76c-0.353,5.04-0.325,10.14,0.008,15.181c0.355,5.343,3.277,8.269,8.556,9.35
			c1.273,0.262,2.604,0.332,3.911,0.351C292.363,341.253,295.741,341.222,299.117,341.217z M257.45,327.148c0-0.003,0-0.006,0-0.01
			c3.845,0,7.691,0.037,11.535-0.031c0.781-0.015,2.148-0.298,2.23-0.674c0.304-1.418,0.421-2.979,0.098-4.369
			c-0.11-0.479-1.707-0.857-2.629-0.867c-7.315-0.07-14.63-0.032-21.946-0.044c-3.309-0.004-4.253-1.17-3.09-4.29
			c0.399-1.071,1.532-2.115,2.592-2.63c1.114-0.539,2.542-0.565,3.836-0.577c6.283-0.052,12.567-0.003,18.85-0.052
			c0.887-0.007,2.467-0.218,2.539-0.574c0.356-1.772,0.529-3.655,0.28-5.433c-0.067-0.48-1.821-1.02-2.807-1.033
			c-7.126-0.086-14.255-0.088-21.383-0.014c-1.667,0.017-3.371,0.28-4.988,0.698c-3.569,0.922-5.871,3.273-6.736,6.85
			c-0.392,1.622-0.562,3.331-0.583,5.003c-0.07,5.721-0.032,11.441-0.032,17.164c0.001,5.132,0.003,5.132,5.127,4.954
			c2.529-0.087,2.879-0.386,2.946-2.998c0.072-2.81-0.009-5.627,0.046-8.438c0.047-2.402,0.23-2.596,2.576-2.622
			C249.759,327.119,253.604,327.148,257.45,327.148z"/>
		<path fill-rule="evenodd" clip-rule="evenodd" fill="#CEC153" d="M238.794,80.444c2.256-3.854,4.406-7.78,6.864-11.5
			c0.474-0.717,2.17-0.907,3.287-0.872c5.33,0.174,10.466-0.622,15.418-2.609c23.075-9.257,30.376-37.866,14.551-57.029
			c-0.631-0.765-1.244-1.547-2.293-2.854c3.185,0.276,5.677,0.405,8.145,0.722c46.5,5.97,87.517,24.618,123.484,54.329
			c44.096,36.423,72.175,82.772,84.169,138.741c2.575,12.013,4.073,24.191,4.836,36.477c0.745,12.013,0.736,24.015-0.259,35.981
			c-2.428,29.243-9.786,57.214-22.293,83.805c-12.101,25.723-28.097,48.735-48.178,68.832
			c-35.587,35.617-78.029,58.573-127.439,68.584c-20.631,4.18-41.491,5.543-62.422,4.261
			c-53.301-3.266-100.899-21.623-142.234-55.551c-37.757-30.991-64.077-69.89-78.988-116.424
			c-4.818-15.033-8.017-30.436-9.758-46.146c-1.348-12.144-1.99-24.318-1.5-36.511c2.096-52.103,18.09-99.414,49.974-140.868
			c35.367-45.982,81.217-76.485,137.574-90.699c10.052-2.535,20.454-3.683,30.699-5.448c0.626-0.107,1.287-0.014,2.537-0.014
			c-0.735,1.044-1.174,1.784-1.722,2.429c-8.899,10.446-12.457,26.464-4.113,40.93c1.638,2.839,1.645,5.107-0.227,7.743
			c-1.625,2.285-2.87,4.837-4.302,7.26c-0.46,0.78-0.979,1.524-1.643,2.55c-3.521-3.398-5.902-7.164-7.335-11.466
			c-1.778-5.334-3.322-10.746-4.958-16.127c-0.3-0.987-0.519-1.999-0.85-2.975c-1.233-3.639-3.035-4.596-6.67-3.36
			c-6.214,2.112-12.451,4.176-18.584,6.509c-26.918,10.238-50.601,25.693-71.853,44.984c-23.438,21.278-41.792,46.332-55.191,74.993
			C38.451,178.517,32.156,198.774,29.053,220c-1.318,9.013-2.118,18.043-2.216,27.161c-0.611,57.237,17.83,107.622,55.283,150.717
			c33.622,38.688,76.002,62.826,126.315,72.897c11.232,2.248,22.567,3.566,34.035,3.945c56.258,1.855,106.215-15.135,149.964-50.339
			c25.065-20.17,44.684-44.891,59.116-73.627c10.554-21.012,17.588-43.2,21.149-66.478c1.904-12.455,2.828-24.978,2.506-37.556
			c-0.698-27.321-6.707-53.491-17.585-78.552c-11.744-27.062-27.982-51.107-48.479-72.306
			c-25.283-26.152-54.661-46.161-88.708-59.161c-3.591-1.371-7.221-2.646-10.875-3.833c-4.975-1.615-6.943-0.358-7.823,4.812
			c-1.385,8.137-3.961,15.852-8.642,22.701c-9.832,14.387-23.447,21.748-40.971,21.514c-4.28-0.057-8.556-0.407-12.833-0.622
			C239.125,80.997,238.959,80.72,238.794,80.444z"/>
		<path fill-rule="evenodd" clip-rule="evenodd" fill="#CEC153" d="M223.415,107.843c0.199-0.653,0.255-1.128,0.475-1.509
			c2.903-5.039,5.858-10.05,8.74-15.102c1.055-1.853,2.559-1.814,4.359-1.475c9.794,1.846,19.573,1.997,29.281-0.563
			c19.701-5.194,32.958-17.525,40.232-36.44c1.276-3.316,2.485-6.657,3.821-10.242c0.93,0.234,1.73,0.368,2.481,0.636
			c26.455,9.43,50.308,23.378,71.654,41.581c23.532,20.066,42.712,43.681,57.242,71.014c10.6,19.94,18.144,40.952,21.974,63.244
			c2.2,12.801,2.895,25.711,2.486,38.678c-0.926,29.536-7.473,57.755-20.188,84.462c-20.651,43.365-52.314,76.309-94.554,99.037
			c-22.268,11.98-46.075,19.46-71.113,22.95c-13.134,1.828-26.362,2.38-39.585,1.702c-48.674-2.492-91.798-19.377-128.994-50.873
			c-30.866-26.138-52.721-58.529-65.485-96.952c-4.954-14.911-8.062-30.219-9.622-45.867c-1.027-10.298-1.394-20.61-0.878-30.912
			c1.308-26.12,7.352-51.149,18.051-75.039c13.154-29.366,31.732-54.803,55.557-76.386c21.376-19.363,45.523-34.238,72.624-44.239
			c2.199-0.811,4.372-1.695,6.559-2.54c2.813-1.086,2.815-1.083,3.85,1.646c1.697,4.471,3.384,8.946,5.095,13.412
			c1.904,4.972,4.943,9.267,8.252,13.356c1.977,2.442,2.25,4.593,0.447,7.339c-2.568,3.916-4.744,8.089-7.103,12.143
			c-0.273,0.47-0.636,0.889-1.15,1.596c-0.828-0.613-1.591-1.092-2.254-1.684c-5.059-4.52-9.57-9.509-13.297-15.211
			c-4.035-6.175-4.533-6.281-11.391-3.364c-37.387,15.904-66,41.752-86.506,76.669c-13.428,22.864-21.487,47.583-25.019,73.837
			c-1.416,10.526-2.25,21.087-1.927,31.688c1.329,43.399,15.124,82.364,42.255,116.363c24.17,30.288,54.789,51.491,91.61,63.611
			c14.479,4.765,29.348,7.68,44.583,8.789c28.682,2.087,56.634-1.327,83.396-11.932c56.211-22.275,94.413-62.155,114.674-119.104
			c5.11-14.365,7.992-29.26,9.381-44.464c0.991-10.868,1.309-21.722,0.38-32.585c-3.754-43.928-19.282-82.782-49.582-115.346
			c-18.883-20.295-41.487-34.989-66.999-45.454c-3.064-1.256-4.617-0.795-6.707,2.138c-4.373,6.135-9.222,11.821-14.969,16.736
			c-11.478,9.813-24.651,15.992-39.521,18.467c-13.521,2.25-26.903,1.963-39.946-2.823C225.23,108.52,224.378,108.2,223.415,107.843
			z"/>
		<path fill-rule="evenodd" clip-rule="evenodd" fill="#CEC153" d="M206.889,136.5c0.158-0.602,0.178-0.994,0.353-1.298
			c3.37-5.853,6.762-11.693,10.141-17.54c0.972-1.683,2.28-1.84,4.072-1.292c4.834,1.476,9.658,3.102,14.601,4.085
			c14.871,2.957,29.509,1.299,43.854-3.149c17.349-5.381,31.592-15.393,42.899-29.579c4.183-5.248,3.806-4.389,8.733-2.133
			c38.662,17.697,67.529,45.48,86.055,83.854c8.557,17.724,13.867,36.408,16.348,55.905c1.589,12.505,1.888,25.088,1.106,37.639
			c-1.377,22.11-6.738,43.292-15.928,63.479c-9.911,21.774-23.432,41.01-40.789,57.485c-26.85,25.489-58.506,41.564-94.937,48.253
			c-14.286,2.619-28.708,3.525-43.148,2.608c-38.121-2.423-72.46-15.197-102.618-38.769c-30.222-23.622-51.126-53.803-62.821-90.32
			c-4.277-13.354-6.919-27.07-7.665-41.081c-0.438-8.232-0.884-16.523-0.429-24.737c2.296-41.524,15.209-79.125,42.031-111.447
			c14.711-17.727,32.313-31.786,52.994-41.972c3.45-1.699,6.887-3.429,10.274-5.249c1.697-0.91,2.836-0.717,4.06,0.872
			c4.703,6.103,9.855,11.811,15.643,16.919c1.043,0.921,1.745,1.745,0.814,3.318c-3.965,6.7-7.8,13.476-11.699,20.215
			c-0.223,0.386-0.585,0.69-1.033,1.206c-4.502-3.701-8.911-7.322-13.316-10.946c-0.436-0.357-0.848-0.742-1.292-1.088
			c-2.644-2.057-3.835-2.193-6.577-0.31c-3.169,2.177-6.313,4.408-9.314,6.808c-31.645,25.309-51.551,57.848-59.658,97.529
			c-2.942,14.398-3.711,28.96-2.589,43.66c2.276,29.793,11.734,57.088,28.913,81.451c25.385,36.005,59.813,58.639,103.002,67.712
			c13.846,2.906,27.914,3.806,41.989,2.843c37.362-2.559,70.336-16.104,98.484-40.856c28.559-25.109,46.468-56.576,53.202-93.924
			c8.192-45.42-1.983-86.767-29.844-123.647c-11.531-15.265-25.515-27.962-41.187-38.85c-3.608-2.508-4.951-2.438-8.139,0.544
			c-16.824,15.735-36.918,24.288-59.547,27.532c-9.98,1.431-19.977,2.001-30.014,1.518c-11.843-0.572-23.455-2.671-34.79-6.198
			C208.36,137.313,207.66,136.868,206.889,136.5z"/>
		<path fill-rule="evenodd" clip-rule="evenodd" fill="#CEC153" d="M278.607,31.851c-0.114,14.883-11.994,27.411-27.498,27.378
			c-15.353-0.031-27.762-11.371-27.806-27.625c-0.044-16.23,12.641-27.629,27.762-27.657
			C266.473,3.919,278.634,16.332,278.607,31.851z"/>
		<path fill-rule="evenodd" clip-rule="evenodd" fill="#CEC153" d="M163.771,209.299c-15.796,0.026-27.805-11.943-27.861-27.767
			c-0.054-15.169,12.125-27.248,27.353-27.38c15.151-0.132,27.76,11.409,27.922,27.171
			C191.357,198.11,177.635,209.669,163.771,209.299z"/>
		<path fill-rule="evenodd" clip-rule="evenodd" fill="#CEC153" d="M186.697,153.245c-3.471-2.062-6.58-3.908-10.012-5.946
			c16.919-29.354,33.654-58.39,50.544-87.696c3.462,2.11,6.551,3.994,9.994,6.092C220.362,94.91,203.647,123.875,186.697,153.245z"
			/>
	</g>
</g>
</svg>
